<svg xmlns="http://www.w3.org/2000/svg" width="50.514" height="48.246" viewBox="0 0 50.514 48.246">
  <path id="budget" d="M51.293,55.966h20.4a.815.815,0,0,0,.815-.815c0-.021,0-.041,0-.061a21.235,21.235,0,0,0-21.21-21.149.815.815,0,0,0-.815.815v20.4A.815.815,0,0,0,51.293,55.966Zm.815-20.379a19.607,19.607,0,0,1,18.75,18.75H52.108ZM73.2,57.669H52.8a.815.815,0,0,0-.576,1.391L66.65,73.482a.815.815,0,0,0,1.152,0,21.077,21.077,0,0,0,6.212-15A.815.815,0,0,0,73.2,57.669ZM67.215,71.742,54.771,59.3h17.6A19.433,19.433,0,0,1,67.215,71.742ZM43.582,61a10.041,10.041,0,1,0-15.518,8.411H26.237A2.74,2.74,0,0,0,23.5,72.146v1.73a2.728,2.728,0,0,0,.791,1.922A2.728,2.728,0,0,0,23.5,77.72v1.73a2.74,2.74,0,0,0,2.737,2.737H40.845a2.74,2.74,0,0,0,2.737-2.737V77.72a2.727,2.727,0,0,0-.791-1.922,2.728,2.728,0,0,0,.791-1.922v-1.73a2.74,2.74,0,0,0-2.737-2.737H39.018A10.04,10.04,0,0,0,43.582,61ZM41.952,79.45a1.109,1.109,0,0,1-1.107,1.107H26.237a1.109,1.109,0,0,1-1.107-1.107V77.72a1.109,1.109,0,0,1,1.107-1.107H40.845a1.109,1.109,0,0,1,1.107,1.107v1.73Zm-1.107-8.411a1.109,1.109,0,0,1,1.107,1.107v1.73a1.109,1.109,0,0,1-1.107,1.107H26.237a1.109,1.109,0,0,1-1.107-1.107v-1.73a1.109,1.109,0,0,1,1.107-1.107Zm-7.3-1.63A8.411,8.411,0,1,1,41.952,61,8.421,8.421,0,0,1,33.541,69.409Zm-1.72-10.163a1.034,1.034,0,0,0,1.107.937h1.225a2.565,2.565,0,1,1,.2,5.124V66.6a.815.815,0,0,1-1.629,0V65.315h-1.72a.815.815,0,1,1,0-1.629h3.147a.95.95,0,1,0,0-1.873H32.928a2.565,2.565,0,1,1-.2-5.124V55.393a.815.815,0,1,1,1.629,0V56.68h1.72a.815.815,0,1,1,0,1.629H32.928A1.034,1.034,0,0,0,31.821,59.246ZM62.96,72.33a.815.815,0,0,1,0,1.152,21.076,21.076,0,0,1-15,6.212,21.5,21.5,0,0,1-2.576-.155.815.815,0,0,1,.2-1.618,19.879,19.879,0,0,0,2.38.143,19.447,19.447,0,0,0,13.259-5.17L47.385,59.06a.814.814,0,0,1-.239-.576V38.92A19.692,19.692,0,0,0,30.259,50.1a.815.815,0,0,1-1.472-.7A21.214,21.214,0,0,1,47.961,37.273a.815.815,0,0,1,.815.815V58.146Z" transform="translate(-23.5 -33.941)"/>
</svg>
