<svg xmlns="http://www.w3.org/2000/svg" width="50" height="49.869" viewBox="0 0 50 49.869">
  <g id="Guidance" transform="translate(0 -0.7)">
    <g id="Layer_1-2" transform="translate(0 0.7)">
      <g id="discover">
        <path id="Path_4" data-name="Path 4" d="M25,.7a25.023,25.023,0,0,0-25,25c1.377,33.164,48.633,33.154,50,0A25.023,25.023,0,0,0,25,.7Zm0,48.477A23.506,23.506,0,0,1,1.514,25.7C2.8-5.452,47.2-5.443,48.486,25.7A23.506,23.506,0,0,1,25,49.177Z" transform="translate(0 -0.7)"/>
        <path id="Path_5" data-name="Path 5" d="M58.92,75.1a.772.772,0,0,0,.9-.6,18.141,18.141,0,0,1,14.15-14.15.757.757,0,0,0-.293-1.484A19.654,19.654,0,0,0,58.344,74.215.749.749,0,0,0,58.92,75.1Z" transform="translate(-52.631 -53.18)"/>
        <path id="Path_6" data-name="Path 6" d="M73.987,302.964a18.141,18.141,0,0,1-14.15-14.15.753.753,0,0,0-1.475.3,19.619,19.619,0,0,0,15.332,15.322A.752.752,0,0,0,73.987,302.964Z" transform="translate(-52.649 -260.151)"/>
        <path id="Path_7" data-name="Path 7" d="M303.065,287.973a.772.772,0,0,0-.9.6,18.141,18.141,0,0,1-14.15,14.15.761.761,0,0,0,.146,1.5,19.58,19.58,0,0,0,15.479-15.352A.744.744,0,0,0,303.065,287.973Z" transform="translate(-259.354 -259.907)"/>
        <path id="Path_8" data-name="Path 8" d="M287.869,60.428a18.141,18.141,0,0,1,14.15,14.15.758.758,0,0,0,1.484-.3,19.643,19.643,0,0,0-15.332-15.332.758.758,0,0,0-.9.586A.772.772,0,0,0,287.869,60.428Z" transform="translate(-259.207 -53.241)"/>
        <path id="Path_9" data-name="Path 9" d="M169.231,150.233,155.3,155.595a.774.774,0,0,0-.43.43L149.5,169.97a.76.76,0,0,0,.977.977l13.926-5.361a.735.735,0,0,0,.43-.439l5.371-13.936A.766.766,0,0,0,169.231,150.233Zm-17.7,18.672,4.326-11.25,6.924,6.924Zm12.314-5.4-6.924-6.924,11.25-4.326Z" transform="translate(-134.856 -135.585)"/>
        <path id="Path_10" data-name="Path 10" d="M36.877,249.654a.763.763,0,0,0-.762-.762H31.574a.757.757,0,1,0,0,1.514h4.541A.761.761,0,0,0,36.877,249.654Z" transform="translate(-27.785 -224.654)"/>
        <path id="Path_11" data-name="Path 11" d="M424.061,248.9H419.52a.757.757,0,0,0-.059,1.514h4.6a.767.767,0,0,0,.732-.781A.758.758,0,0,0,424.061,248.9Z" transform="translate(-377.85 -224.661)"/>
        <path id="Path_12" data-name="Path 12" d="M248.962,419.6a.763.763,0,0,0-.762.762V424.9a.757.757,0,0,0,1.514,0v-4.541A.742.742,0,0,0,248.962,419.6Z" transform="translate(-223.962 -378.692)"/>
        <path id="Path_13" data-name="Path 13" d="M249.052,37.933a.763.763,0,0,0,.762-.762V32.63a.757.757,0,0,0-1.514,0v4.551A.746.746,0,0,0,249.052,37.933Z" transform="translate(-224.052 -28.851)"/>
      </g>
    </g>
  </g>
</svg>
