<svg xmlns="http://www.w3.org/2000/svg" width="53" height="64.262" viewBox="0 0 53 64.262">
  <g id="strategy" transform="translate(-57.806 -13.5)">
    <path id="Path_15" data-name="Path 15" d="M110.806,437.431h-53v-6.673l5.223-5.223h42.554l5.223,5.223Zm-50-3h47V432l-3.466-3.466H64.272L60.806,432Z" transform="translate(0 -359.669)" fill="#fff"/>
    <path id="Path_16" data-name="Path 16" d="M240.824,158.328h-2.415a6.468,6.468,0,0,1-6.461-6.461v-1.542h3v1.542a3.465,3.465,0,0,0,3.461,3.461h2.415Z" transform="translate(-152.01 -118.127)" fill="#fff"/>
    <path id="Path_17" data-name="Path 17" d="M149.533,67.366h-3v-31.7A14.623,14.623,0,0,1,159.041,21.2V19.733a6.24,6.24,0,0,1,6.233-6.233h4.256v8.143l14.76,7.743v5.13A5.694,5.694,0,0,1,178.6,40.2H166.741v1.23a4.006,4.006,0,0,0,1.557,3.159l7.146,5.486a19.865,19.865,0,0,1,7.768,15.757v1.53h-3v-1.53a16.969,16.969,0,0,0-6.6-13.378l-7.146-5.486a7.025,7.025,0,0,1-2.73-5.538V37.2H178.6a2.69,2.69,0,0,0,2.687-2.687V31.2l-14.76-7.743V16.5h-1.256a3.236,3.236,0,0,0-3.233,3.233V24l-1.431.066a11.6,11.6,0,0,0-11.076,11.606Z" transform="translate(-77.451)" fill="#fff"/>
    <path id="Path_18" data-name="Path 18" d="M96.387,57.5H87.368V35.675A22.158,22.158,0,0,1,109.543,13.5h6.841v3h-6.841A19.2,19.2,0,0,0,90.368,35.675V54.5h6.019Z" transform="translate(-25.805)" fill="#fff"/>
  </g>
</svg>
